<?xml version="1.0" encoding="UTF-8" standalone="no"?>
<!-- Generator: Adobe Illustrator 15.1.0, SVG Export Plug-In . SVG Version: 6.00 Build 0)  -->

<svg
   xmlns:dc="http://purl.org/dc/elements/1.1/"
   xmlns:cc="http://creativecommons.org/ns#"
   xmlns:rdf="http://www.w3.org/1999/02/22-rdf-syntax-ns#"
   xmlns:svg="http://www.w3.org/2000/svg"
   xmlns="http://www.w3.org/2000/svg"
   xmlns:sodipodi="http://sodipodi.sourceforge.net/DTD/sodipodi-0.dtd"
   xmlns:inkscape="http://www.inkscape.org/namespaces/inkscape"
   version="1.1"
   id="Layer_1"
   x="0px"
   y="0px"
   width="600"
   height="600"
   viewBox="0 0 600 600"
   enable-background="new 0 0 612 792"
   xml:space="preserve"
   inkscape:version="0.91 r"
   sodipodi:docname="aspen_leaf.svg"><metadata
     id="metadata9"><rdf:RDF><cc:Work
         rdf:about=""><dc:format>image/svg+xml</dc:format><dc:type
           rdf:resource="http://purl.org/dc/dcmitype/StillImage" /><dc:title></dc:title></cc:Work></rdf:RDF></metadata><defs
     id="defs7" /><sodipodi:namedview
     pagecolor="#ffffff"
     bordercolor="#666666"
     borderopacity="1"
     objecttolerance="10"
     gridtolerance="10"
     guidetolerance="10"
     inkscape:pageopacity="0"
     inkscape:pageshadow="2"
     inkscape:window-width="1920"
     inkscape:window-height="1028"
     id="namedview5"
     showgrid="false"
     inkscape:zoom="0.84281414"
     inkscape:cx="324.88519"
     inkscape:cy="332.22818"
     inkscape:window-x="0"
     inkscape:window-y="0"
     inkscape:window-maximized="1"
     inkscape:current-layer="Layer_1" /><path
     stroke-miterlimit="22.9256"
     d="m 322.17799,415.55017 c 5.97515,-1.12441 13.77431,0.25936 23.06823,2.42122 9.29391,2.16185 20.0818,5.10332 32.6937,4.75777 12.61344,-0.34556 27.05166,-3.97892 37.5903,-8.04404 10.53864,-4.06511 17.17693,-8.56352 26.63624,-13.49369 9.46008,-4.93016 21.74119,-10.29362 32.11366,-20.15472 10.3717,-9.8611 18.8363,-24.21983 24.31295,-37.10784 5.47664,-12.888 7.9661,-24.30603 8.79617,-37.281 0.82931,-12.9742 0,-27.5061 -1.82554,-39.26969 -1.82555,-11.76359 -4.64658,-20.75964 -7.0114,-26.85808 -2.36483,-6.09767 -4.27346,-9.29851 -5.64282,-13.06117 -1.36858,-3.76265 -2.19866,-8.0879 -3.19413,-11.41726 -0.99624,-3.3309 -2.15789,-5.66592 -3.48493,-7.56841 -1.32781,-1.90326 -2.82179,-3.37323 -3.81727,-5.53585 -0.99547,-2.16263 -1.49321,-5.01713 -2.48945,-7.26595 -0.99547,-2.24882 -2.48869,-3.89272 -3.27799,-6.01148 -0.78776,-2.11875 -0.87084,-4.7139 -1.82555,-6.61716 -0.95393,-1.90327 -2.77948,-3.11387 -4.0242,-5.06023 -1.24396,-1.94636 -1.90787,-4.62771 -3.48493,-6.5302 -1.5763,-1.90326 -4.06575,-3.02767 -5.47588,-5.40656 -1.41089,-2.37888 -1.74323,-6.01224 -3.52724,-8.64972 -1.78324,-2.63825 -5.01968,-4.28215 -6.97062,-6.79033 -1.95095,-2.50818 -2.61332,-5.88218 -4.35655,-8.39036 -1.74246,-2.50818 -4.56349,-4.15208 -6.09901,-6.66026 -1.53475,-2.50818 -1.78324,-5.88141 -3.98266,-8.56276 -2.19943,-2.68134 -6.34827,-4.6708 -9.00389,-7.13588 -2.65485,-2.46508 -3.8165,-5.40579 -5.8913,-7.17976 -2.07403,-1.77319 -5.06122,-2.37811 -7.63453,-4.32447 -2.57177,-1.94636 -4.72889,-5.2334 -7.67608,-7.56841 -2.94564,-2.335789 -6.67983,-3.719559 -9.00311,-5.665919 -2.32329,-1.94636 -3.23568,-4.454543 -5.35202,-5.752116 -2.11558,-1.298344 -5.4351,-1.384541 -7.79993,-2.854509 -2.36483,-1.470737 -3.77573,-4.325245 -5.93361,-5.968377 -2.15789,-1.643132 -5.062,-2.075656 -6.9714,-3.460197 -1.90786,-1.38377 -2.82025,-3.719557 -5.84975,-4.887066 -3.02951,-1.167508 -8.17382,-1.167508 -11.20332,-2.248819 -3.02873,-1.081312 -3.94112,-3.243935 -6.18132,-4.368345 -2.2402,-1.12441 -5.80899,-1.211376 -8.63001,-2.638246 -2.82179,-1.426869 -4.89582,-4.19518 -7.75916,-5.622819 -2.86256,-1.42687 -6.51366,-1.513836 -9.0862,-2.983804 -2.57254,-1.470738 -4.06575,-4.325246 -5.97515,-6.314705 -1.90786,-1.989459 -4.23192,-3.113869 -6.0367,-4.822418 -1.80554,-1.708549 -3.09181,-4.000468 -4.275,-6.811877 -1.18241,-2.81141 -2.2602,-6.141541 -3.33953,-8.930632 -1.07856,-2.789861 -2.15788,-5.038681 -3.29875,-4.433762 -1.14088,-0.605688 -2.21944,1.643901 -3.29876,4.433762 -1.07933,2.789091 -2.15712,6.119222 -3.3403,8.930632 -1.18242,2.811409 -2.46869,5.103328 -4.27423,6.811877 -1.80555,1.708549 -4.12807,2.832959 -6.0367,4.822418 -1.90863,1.989459 -3.40184,4.843967 -5.97438,6.314705 -2.57254,1.469968 -6.22364,1.556165 -9.0862,2.983804 -2.86334,1.426869 -4.93737,4.19518 -7.75916,5.622819 -2.82102,1.42687 -6.38904,1.513836 -8.63001,2.638246 -2.24097,1.12441 -3.15336,3.287033 -6.18209,4.368345 -3.0295,1.081311 -8.17381,1.081311 -11.20255,2.248819 -3.02873,1.168279 -3.94189,3.503296 -5.84975,4.887066 -1.90864,1.383771 -4.81274,1.816296 -6.97063,3.460197 -2.15788,1.643901 -3.56801,4.49764 -5.93284,5.968377 -2.36483,1.469968 -5.68436,1.556165 -7.8007,2.854509 -2.11557,1.297573 -3.02873,3.805756 -5.35202,5.752116 -2.32329,1.94636 -6.05747,3.33013 -9.00312,5.665919 -2.94565,2.33578 -5.10353,5.62282 -7.67607,7.56841 -2.57254,1.94559 -5.55973,2.55128 -7.63376,4.32447 -2.0748,1.7732 -3.23645,4.71391 -5.89207,7.17976 -2.65562,2.46585 -6.80446,4.45454 -9.00312,7.13588 -2.19866,2.68135 -2.44791,6.05458 -3.98343,8.56276 -1.53552,2.50818 -4.35655,4.15208 -6.09901,6.66026 -1.74247,2.50818 -2.40637,5.88218 -4.35655,8.39036 -1.95017,2.50818 -5.18662,4.15208 -6.96985,6.79033 -1.78401,2.63748 -2.11635,6.27084 -3.52647,8.64972 -1.4109,2.37889 -3.90036,3.5033 -5.47665,5.40656 -1.5763,1.90249 -2.2402,4.58461 -3.48493,6.5302 -1.24473,1.94636 -3.07027,3.15696 -4.02421,5.06023 -0.95393,1.90326 -1.03778,4.49841 -1.82555,6.61716 -0.78853,2.11876 -2.28174,3.76266 -3.27721,6.01148 -0.99625,2.24882 -1.49398,5.10332 -2.48946,7.26595 -0.99547,2.16262 -2.48945,3.63336 -3.81649,5.53585 -1.32782,1.90249 -2.48946,4.23828 -3.4857,7.56841 -0.99548,3.33013 -1.82555,7.65461 -3.19413,11.41726 -1.36859,3.76266 -3.27799,6.9635 -5.64205,13.06117 -2.364832,6.09844 -5.186622,15.09449 -7.011402,26.85808 -1.82632,11.76436 -2.65562,26.29549 -1.82555,39.26969 0.82931,12.97497 3.31876,24.393 8.795412,37.281 5.47664,12.88801 13.94125,27.24674 24.31372,37.10784 10.3717,9.8611 22.65357,15.22379 32.11289,20.15472 9.46008,4.93017 16.09837,9.42858 26.637,13.49369 10.53864,4.06512 24.97763,7.69848 37.5903,8.04404 12.61345,0.34555 23.40057,-2.59515 32.69448,-4.75777 9.29391,-2.16263 17.09384,-3.54563 23.06823,-2.42122 11.52026,2.16801 14.44591,14.48034 16.4884,24.76319 1.47244,7.41064 3.04874,18.74324 3.33953,35.13608 0.2908,16.39283 -0.70545,37.84436 -3.02873,53.24131 -2.32329,15.39695 -5.97439,24.73933 -9.12775,30.9663 -3.15336,6.22851 -5.80898,9.34237 -5.72589,11.54733 0.0831,2.20572 2.9041,3.50406 6.65906,4.45531 3.75495,0.95124 8.44383,1.55616 13.46428,1.3399 5.01968,-0.21549 10.3717,-1.25371 11.43026,-5.23339 1.05779,-3.97892 -2.17866,-10.89855 -3.46493,-25.34425 -1.28627,-14.44494 -0.62313,-36.41518 -0.77699,-55.691 -0.15309,-19.27582 -1.12549,-35.85721 -0.79315,-46.20779 0.3685,-11.3934 2.97258,-26.54177 15.89066,-28.97299 z"
     id="path3"
     style="clip-rule:evenodd;fill:#8fdb90;fill-opacity:1;fill-rule:evenodd;stroke:#006a00;stroke-width:2.9999001;stroke-linecap:round;stroke-linejoin:round;stroke-miterlimit:22.92560005;stroke-opacity:1"
     inkscape:connector-curvature="0" /></svg>